<svg width="1659" height="419" viewBox="0 0 1659 419" fill="none" xmlns="http://www.w3.org/2000/svg">
<g clip-path="url(#clip0_104_937)">
<path d="M383.979 196.8H57.7665C49.4601 196.8 42.6641 189.961 42.6641 181.603V158.427C42.6641 132.213 63.8074 110.937 89.8591 110.937H351.508C377.56 110.937 398.703 132.213 398.703 158.427V181.603C399.081 189.961 392.285 196.8 383.979 196.8Z" fill="#060419"/>
<path d="M315.263 85.8626H126.483C118.176 85.8626 111.003 79.024 111.003 70.2858C111.003 31.5336 142.34 0 180.851 0H260.894C299.405 0 330.743 31.5336 330.743 70.2858C330.743 79.024 323.947 85.8626 315.263 85.8626Z" fill="#060419"/>
<path d="M399.081 221.874H42.6643C19.2556 221.874 0 241.25 0 264.805C0 288.361 19.2556 307.737 42.6643 307.737H169.147C173.678 283.422 194.821 264.805 220.495 264.805C246.169 264.805 267.69 283.422 272.221 307.737H398.704C422.112 307.737 441.368 288.361 441.368 264.805C441.368 241.25 422.49 221.874 399.081 221.874Z" fill="#060419"/>
<path d="M383.601 332.813H272.976V418.676H356.039C379.448 418.676 398.704 399.3 398.704 375.744V348.39C399.081 340.032 392.285 332.813 383.601 332.813Z" fill="#060419"/>
<path d="M57.7664 332.812C49.46 332.812 42.2864 339.651 42.2864 348.389V375.744C42.2864 399.299 61.542 418.675 84.9507 418.675H168.014V332.812C168.392 332.812 57.7664 332.812 57.7664 332.812Z" fill="#060419"/>
<path d="M779.285 239.352C779.285 286.082 747.192 316.096 705.283 316.096C685.272 316.096 669.415 309.637 658.843 296.72V313.817H617.689V108.278H660.731V180.844C671.68 168.686 686.782 162.607 705.283 162.607C746.815 162.607 779.285 192.621 779.285 239.352ZM735.488 239.352C735.488 213.517 719.253 197.94 697.732 197.94C676.211 197.94 659.976 213.517 659.976 239.352C659.976 265.186 676.211 280.763 697.732 280.763C719.253 280.763 735.488 265.186 735.488 239.352Z" fill="#060419"/>
<path d="M919.737 267.086L942.768 292.161C929.176 308.117 908.41 316.096 881.604 316.096C830.255 316.096 797.03 283.802 797.03 239.351C797.03 194.9 830.633 162.607 876.318 162.607C918.227 162.607 952.585 190.341 952.963 238.212L843.092 259.487C849.511 274.304 863.103 281.523 882.359 281.523C898.216 281.523 909.543 276.964 919.737 267.086ZM838.939 234.792L911.053 220.735C906.9 205.538 894.063 195.28 875.94 195.28C854.797 195.28 839.694 209.717 838.939 234.792Z" fill="#060419"/>
<path d="M1093.42 267.086L1116.45 292.161C1102.85 308.117 1082.09 316.096 1055.28 316.096C1003.93 316.096 970.708 283.802 970.708 239.351C970.708 194.9 1004.31 162.607 1050 162.607C1091.9 162.607 1126.26 190.341 1126.64 238.212L1017.15 259.487C1023.57 274.304 1037.16 281.523 1056.41 281.523C1071.89 281.523 1083.22 276.964 1093.42 267.086ZM1012.62 234.792L1084.73 220.735C1080.58 205.538 1067.74 195.28 1049.62 195.28C1028.47 195.28 1013.75 209.717 1012.62 234.792Z" fill="#060419"/>
<path d="M1307.11 228.714V314.197H1264.07V235.173C1264.07 211.237 1253.12 199.84 1233.87 199.84C1213.1 199.84 1198.38 212.757 1198.38 240.112V313.817H1155.34V108.278H1198.38V180.464C1210.08 168.686 1226.69 162.607 1245.57 162.607C1280.69 162.607 1307.11 183.123 1307.11 228.714Z" fill="#060419"/>
<path d="M1340.72 119.676C1340.72 105.999 1351.67 95.3608 1367.52 95.3608C1383.38 95.3608 1394.33 105.239 1394.33 118.536C1394.33 132.973 1383.38 143.611 1367.52 143.611C1351.67 143.611 1340.72 133.353 1340.72 119.676ZM1346 164.887H1389.04V314.196H1346C1346 313.817 1346 164.887 1346 164.887Z" fill="#060419"/>
<path d="M1423.78 119.676C1423.78 105.999 1434.73 95.3608 1450.59 95.3608C1466.45 95.3608 1477.39 105.239 1477.39 118.536C1477.39 132.973 1466.45 143.611 1450.59 143.611C1434.73 143.611 1423.78 133.353 1423.78 119.676ZM1429.07 164.887H1472.11V314.196H1429.07C1429.07 313.817 1429.07 164.887 1429.07 164.887Z" fill="#060419"/>
<path d="M1659 164.887L1596.33 314.197H1551.77L1489.48 164.887H1534.03L1575.18 266.327L1617.47 164.887C1617.85 164.887 1659 164.887 1659 164.887Z" fill="#060419"/>
</g>
<defs>
<clipPath id="clip0_104_937">
<rect width="1659" height="418.675" fill="white"/>
</clipPath>
</defs>
</svg>
