<svg xmlns="http://www.w3.org/2000/svg" viewBox="0 0 1600 680"><defs><style type="text/css">.a{fill:#32373c}</style></defs><path class="a" d="M722 515.4h-81.9v8.7c25.7 0 29.8 5.5 29.8 38v58.6c0 32.5-4.1 38.5-29.8 38.5-19.7-2.8-33-13.3-51.2-33.5L567.8 603c28.4-5 43.5-23 43.5-43 0-25.3-21.5-44.5-61.8-44.5h-80.6v8.7c25.6 0 29.8 5.5 29.8 38v58.6c0 32.5-4.2 38.5-29.8 38.5v8.7H560v-8.7c-25.6 0-29.7-6-29.7-38.5v-16.5h7.7L589 668H722c65.5 0 93.8-34.8 93.8-76.5s-28.3-76-93.8-76zM530.4 590v-60.9H549c20.6 0 29.8 14.2 29.8 30.7 0 16-9.2 30.2-29.8 30.2zm193.2 63.7h-3.2c-16.5 0-18.8-4.1-18.8-25.2V529h22c47.6 0 56.3 34.8 56.3 61.8 0 28-8.7 62.8-56.3 62.8zM213.9 607l31.6-93.4c9.1-27 5-34.8-24.3-34.8v-9.2h86.1v9.2c-28.8 0-35.7 6.8-47.2 40.3L208 675.7h-6l-46.6-143.4-47.6 143.4h-6L51 519C40 485.6 32.6 478.8 6 478.8v-9.2h101.7v9.2c-27 0-34.4 6.4-24.7 34.8l30.6 93.4L160 469.6h8.7zM369.6 673.8c-50.4 0-91.6-37-91.6-82.4 0-44.9 41.2-82 91.6-82s91.5 37.1 91.5 82c0 45.3-41.2 82.4-91.5 82.4zm0-150.2c-42.2 0-56.8 38-56.8 67.8 0 30.2 14.6 67.8 56.8 67.8 42.5 0 57.2-37.6 57.2-67.8 0-29.8-14.7-67.8-57.2-67.8zM929 658.7v9.2H824.2v-9.2c30.7 0 36.1-7.8 36.1-53.6V532c0-45.8-5.4-53.1-36.1-53.1v-9.2h94.7c47.2 0 73.3 24.3 73.3 56.8 0 31.6-26 56.3-73.3 56.3h-26v22.4c0 45.8 5.4 53.6 36.1 53.6zm-10-172.6h-26.2v79.7H919c25.7 0 37.6-17.9 37.6-39.4 0-22-12-40.3-37.6-40.3zM1306.7 624.8l-2.3 8.3c-4 15-9.1 20.6-41.6 20.6h-6.4c-23.8 0-28-5.5-28-38v-21c35.8 0 38.5 3.1 38.5 27h8.7v-68.3h-8.7c0 23.8-2.7 27-38.5 27v-51.3h25.2c32.5 0 37.6 5.5 41.7 20.6l2.3 8.7h7.3l-3.2-43h-134.6v8.7c25.6 0 29.7 5.5 29.7 38v58.6c0 29.7-3.5 37.2-23.7 38.3-19.2-3-32.4-13.4-50.4-33.3l-21-22.8c28.3-5 43.4-23 43.4-43 0-25.3-21.5-44.5-61.8-44.5h-80.6v8.7c25.7 0 29.8 5.5 29.8 38v58.6c0 32.5-4.1 38.5-29.8 38.5v8.7h91.1v-8.7c-25.6 0-29.7-6-29.7-38.5v-16.5h7.8l50.8 63.7h188.2l2.7-43zM1064.1 590v-60.9h18.8c20.6 0 29.7 14.2 29.7 30.7 0 16-9.1 30.2-29.7 30.2zM1399.7 673.8a67.7 67.7 0 0 1-41.2-15.5 33 33 0 0 0-7.4 15.5h-8.7v-63.2h9.2c3.7 30.3 24.7 48.1 51.7 48.1 14.7 0 26.6-8.2 26.6-22 0-11.9-10.5-21-29.3-29.7l-26.1-12.4c-18.3-8.7-32-23.8-32-44 0-22 20.5-40.7 49-40.7 15 0 27.9 5.5 35.6 12 2.3-2 4.6-7 6-12.5h8.7v54h-9.6c-3.2-21.4-15.1-39.3-39.4-39.3-12.8 0-24.7 7.3-24.7 18.8 0 11.9 9.6 18.3 31.6 28.4l25.2 12.3c22 10.5 30.6 27.5 30.6 41.2 0 28.9-25.2 49-55.8 49zM1538.1 673.8a67.7 67.7 0 0 1-41.2-15.5 33 33 0 0 0-7.3 15.5h-8.7v-63.2h9.1c3.7 30.3 24.8 48.1 51.8 48.1 14.6 0 26.5-8.2 26.5-22 0-11.9-10.5-21-29.3-29.7l-26-12.4c-18.4-8.7-32.1-23.8-32.1-44 0-22 20.6-40.7 49-40.7 15 0 27.9 5.5 35.7 12 2.3-2 4.6-7 6-12.5h8.6v54h-9.6c-3.2-21.4-15-39.3-39.4-39.3-12.8 0-24.7 7.3-24.7 18.8 0 11.9 9.6 18.3 31.6 28.4l25.2 12.3c22 10.5 30.7 27.5 30.7 41.2 0 28.9-25.2 49-55.9 49zM800 18.4a192.7 192.7 0 0 1 108.3 33 194.3 194.3 0 0 1 70.2 85.3 193.4 193.4 0 0 1-17.9 183.6 194.3 194.3 0 0 1-85.2 70.2 193.4 193.4 0 0 1-183.7-17.8 194.3 194.3 0 0 1-70.2-85.3 193.4 193.4 0 0 1 17.9-183.6 194.3 194.3 0 0 1 85.2-70.2A192.5 192.5 0 0 1 800 18.4M800 6a206 206 0 1 0 0 412.1 206 206 0 0 0 0-412z"/><path class="a" d="M628.3 212a171.7 171.7 0 0 0 96.8 154.6l-82-224.4a171 171 0 0 0-14.8 69.9zm287.6-8.6c0-21.2-7.6-36-14.1-47.4-8.7-14.1-17-26-17-40.2 0-15.8 12-30.5 29-30.5l2.1.1a171.7 171.7 0 0 0-259.4 32.4l11 .2c18 0 45.9-2.2 45.9-2.2 9.2-.6 10.3 13 1 14.1 0 0-9.2 1.1-19.6 1.7l62.5 186L795 204.8l-26.7-73.3a315 315 0 0 1-18-1.7c-9.3-.5-8.2-14.7 1-14.1 0 0 28.4 2.2 45.3 2.2 17.9 0 45.7-2.2 45.7-2.2 9.3-.6 10.4 13 1.1 14.1 0 0-9.3 1.1-19.6 1.7l62 184.5 17.7-56.1c7.9-24.5 12.5-42 12.5-56.6zM803 227.1l-51.5 149.7A171.8 171.8 0 0 0 857 374a15.7 15.7 0 0 1-1.2-2.3zm147.7-97.4a131.9 131.9 0 0 1 1.1 17.6c0 17.5-3.2 37-13 61.5l-52.5 151.7a171.7 171.7 0 0 0 64.4-230.8z"/></svg>